<?xml version="1.0" encoding="utf-8"?>
<!-- Generator: Adobe Illustrator 27.9.0, SVG Export Plug-In . SVG Version: 6.00 Build 0)  -->
<svg version="1.1" id="Capa_1" xmlns="http://www.w3.org/2000/svg" xmlns:xlink="http://www.w3.org/1999/xlink" x="0px" y="0px"
	 viewBox="0 0 300 300" style="enable-background:new 0 0 300 300;" xml:space="preserve">
<style type="text/css">
	.st0{fill:#396F70;}
	.st1{fill:#A1D9D9;}
</style>
<g>
	<path class="st0" d="M243.4,33.5L243.4,33.5l-38.3,48.1c-1.8,2.2-5.1,2.2-6.8,0l-38.3-48v-0.1h-42.5c-2.4,0-4.4,2-4.4,4.4v224.2
		c0,2.4,2,4.4,4.4,4.4h38.1c2.4,0,4.4-2,4.4-4.4V121.3c0-4.1,5.2-6,7.8-2.7l26.9,33.7l0.5-0.4v0.7h13.1v-0.7l0.5,0.4l26.9-33.7
		c2.6-3.2,7.8-1.4,7.8,2.7v140.8c0,2.4,2,4.4,4.4,4.4h38.1c2.4,0,4.4-2,4.4-4.4V37.9c0-2.4-2-4.4-4.4-4.4H243.4z"/>
	<path class="st1" d="M158.6,37.9c0-2.4-2-4.4-4.4-4.4h-46.6H60.7H14.1c-2.4,0-4.4,2-4.4,4.4v36.3c0,2.4,2,4.4,4.4,4.4h42.3
		c2.4,0,4.4,2,4.4,4.4v179.1c0,2.4,2,4.4,4.4,4.4h38.1c2.4,0,4.4-2,4.4-4.4V83c0-2.4,2-4.4,4.4-4.4h42.3c2.4,0,4.4-2,4.4-4.4V37.9z"
		/>
</g>
</svg>
